<svg width="64" height="64" viewBox="0 0 64 64" fill="none" xmlns="http://www.w3.org/2000/svg">
<path d="M10.6667 10.6667L16 21.3334H24L18.6667 10.6667H24L29.3334 21.3334H37.3334L32 10.6667H37.3334L42.6667 21.3334H50.6667L45.3334 10.6667H53.3334C54.8 10.6667 56.056 11.1894 57.1014 12.2347C58.1449 13.2782 58.6667 14.5334 58.6667 16V48C58.6667 49.4667 58.1449 50.7227 57.1014 51.768C56.056 52.8116 54.8 53.3334 53.3334 53.3334H10.6667C9.20004 53.3334 7.94493 52.8116 6.90137 51.768C5.85604 50.7227 5.33337 49.4667 5.33337 48V16C5.33337 14.5334 5.85604 13.2782 6.90137 12.2347C7.94493 11.1894 9.20004 10.6667 10.6667 10.6667Z" fill="#FB4946"/>
</svg>
