<svg width="43" height="43" viewBox="0 0 43 43" fill="none" xmlns="http://www.w3.org/2000/svg">
<path d="M37.3383 3.90582L30.297 5.30332L35.2062 11.6458L38.7358 10.9292L37.3383 3.90582M25.0295 6.34249L21.4999 7.04124L26.427 13.3658L29.9387 12.6671L25.0295 6.34249M16.2504 8.06249L12.7208 8.79707L17.6479 15.1217L21.1595 14.4229L16.2504 8.06249ZM7.45327 9.85416L5.69744 10.1946C4.76646 10.3806 3.94735 10.9284 3.41995 11.7179C2.89255 12.5073 2.69998 13.4737 2.88452 14.405L3.58327 17.9167L12.3624 16.1787L7.45327 9.85416ZM3.58327 17.9167V35.8333C3.58327 36.7837 3.9608 37.6951 4.63281 38.3671C5.30481 39.0391 6.21625 39.4167 7.16661 39.4167H35.8333C37.822 39.4167 39.4166 37.8221 39.4166 35.8333V17.9167H3.58327Z" fill="#55678F"/>
</svg>
