<svg width="34" height="36" viewBox="0 0 34 36" fill="none" xmlns="http://www.w3.org/2000/svg">
<path d="M30.5071 30.6984L24.7563 24.6234C26.7859 22.0649 27.8043 18.7754 27.5991 15.4412C27.3939 12.1069 25.9809 8.98524 23.6548 6.72726C21.3287 4.46928 18.2691 3.2493 15.1141 3.32178C11.9591 3.39426 8.95239 4.75359 6.72097 7.11627C4.48955 9.47896 3.20573 12.6626 3.13728 16.0031C3.06883 19.3437 4.22103 22.5832 6.35357 25.0462C8.48611 27.5091 11.4343 29.0052 14.5834 29.2225C17.7324 29.4398 20.8391 28.3615 23.2555 26.2125L28.993 32.3015C29.1961 32.5095 29.4675 32.6257 29.75 32.6257C30.0325 32.6257 30.304 32.5095 30.5071 32.3015C30.7066 32.0882 30.8185 31.8002 30.8185 31.5C30.8185 31.1998 30.7066 30.9117 30.5071 30.6984V30.6984ZM5.31252 16.3125C5.31252 14.1987 5.90451 12.1324 7.01363 10.3748C8.12274 8.61727 9.69917 7.24742 11.5436 6.43851C13.388 5.6296 15.4175 5.41795 17.3755 5.83033C19.3335 6.24271 21.132 7.2606 22.5436 8.75527C23.9553 10.2499 24.9166 12.1543 25.3061 14.2274C25.6955 16.3006 25.4957 18.4495 24.7317 20.4024C23.9677 22.3553 22.674 24.0244 21.0141 25.1988C19.3542 26.3732 17.4026 27 15.4063 27C12.7303 26.9963 10.165 25.8691 8.27279 23.8656C6.38061 21.8621 5.31604 19.1458 5.31252 16.3125V16.3125Z" fill="white"/>
</svg>
